<mxfile host="www.draw.io" modified="2019-12-24T07:31:45.758Z" agent="Mozilla/5.0 (Macintosh; Intel Mac OS X 10_14_6) AppleWebKit/537.36 (KHTML, like Gecko) Chrome/78.0.3904.108 Safari/537.36" etag="bi-Bs7xJNqHNUm9DgMJO" version="12.4.3" type="github" pages="1">
  <diagram id="Ai4Y_K-u0OYF5FWCfehs" name="第 1 页">
    <mxGraphModel dx="1186" dy="614" grid="1" gridSize="10" guides="1" tooltips="1" connect="1" arrows="1" fold="1" page="1" pageScale="1" pageWidth="1169" pageHeight="827" math="0" shadow="0">
      <root>
        <mxCell id="0"/>
        <mxCell id="1" parent="0"/>
        <mxCell id="vksiCmzUZhZXsTjqpCSR-17" value="" style="rounded=0;whiteSpace=wrap;html=1;" parent="1" vertex="1">
          <mxGeometry x="40" y="470" width="470" height="90" as="geometry"/>
        </mxCell>
        <mxCell id="vksiCmzUZhZXsTjqpCSR-1" value="" style="rounded=0;whiteSpace=wrap;html=1;" parent="1" vertex="1">
          <mxGeometry x="40" y="230" width="470" height="210" as="geometry"/>
        </mxCell>
        <mxCell id="vksiCmzUZhZXsTjqpCSR-2" value="通用型&lt;br&gt;beijing-e-ssd" style="rounded=0;whiteSpace=wrap;html=1;" parent="1" vertex="1">
          <mxGeometry x="60" y="500" width="90" height="50" as="geometry"/>
        </mxCell>
        <mxCell id="vksiCmzUZhZXsTjqpCSR-3" value="User" style="shape=umlActor;verticalLabelPosition=bottom;labelBackgroundColor=#ffffff;verticalAlign=top;html=1;outlineConnect=0;" parent="1" vertex="1">
          <mxGeometry x="265" y="110" width="20" height="40" as="geometry"/>
        </mxCell>
        <mxCell id="vksiCmzUZhZXsTjqpCSR-14" value="通用型&lt;br&gt;hangzhou-b-1" style="rounded=0;whiteSpace=wrap;html=1;" parent="1" vertex="1">
          <mxGeometry x="173" y="500" width="90" height="50" as="geometry"/>
        </mxCell>
        <mxCell id="vksiCmzUZhZXsTjqpCSR-15" value="极速型&lt;br&gt;cn-hangzhou" style="rounded=0;whiteSpace=wrap;html=1;" parent="1" vertex="1">
          <mxGeometry x="287" y="500" width="90" height="50" as="geometry"/>
        </mxCell>
        <mxCell id="vksiCmzUZhZXsTjqpCSR-16" value="CPFS&lt;br&gt;cn-shanghai" style="rounded=0;whiteSpace=wrap;html=1;" parent="1" vertex="1">
          <mxGeometry x="400" y="500" width="90" height="50" as="geometry"/>
        </mxCell>
        <mxCell id="vksiCmzUZhZXsTjqpCSR-19" value="NAS服务集群" style="text;html=1;strokeColor=none;fillColor=none;align=center;verticalAlign=middle;whiteSpace=wrap;rounded=0;" parent="1" vertex="1">
          <mxGeometry x="40" y="470" width="90" height="20" as="geometry"/>
        </mxCell>
        <mxCell id="vksiCmzUZhZXsTjqpCSR-20" value="NAS管控服务" style="text;html=1;strokeColor=none;fillColor=none;align=center;verticalAlign=middle;whiteSpace=wrap;rounded=0;" parent="1" vertex="1">
          <mxGeometry x="40" y="230" width="90" height="20" as="geometry"/>
        </mxCell>
        <mxCell id="vksiCmzUZhZXsTjqpCSR-22" value="" style="rounded=0;whiteSpace=wrap;html=1;dashed=1;" parent="1" vertex="1">
          <mxGeometry x="145" y="250" width="260" height="130" as="geometry"/>
        </mxCell>
        <mxCell id="vksiCmzUZhZXsTjqpCSR-23" value="API统一拦截验证灰度策略" style="text;html=1;strokeColor=none;fillColor=none;align=center;verticalAlign=middle;whiteSpace=wrap;rounded=0;dashed=1;" parent="1" vertex="1">
          <mxGeometry x="145" y="250" width="150" height="20" as="geometry"/>
        </mxCell>
        <mxCell id="vksiCmzUZhZXsTjqpCSR-28" style="edgeStyle=orthogonalEdgeStyle;rounded=0;orthogonalLoop=1;jettySize=auto;html=1;exitX=0.5;exitY=0;exitDx=0;exitDy=0;entryX=0;entryY=0.5;entryDx=0;entryDy=0;dashed=1;" parent="1" source="vksiCmzUZhZXsTjqpCSR-24" target="vksiCmzUZhZXsTjqpCSR-27" edge="1">
          <mxGeometry relative="1" as="geometry"/>
        </mxCell>
        <mxCell id="vksiCmzUZhZXsTjqpCSR-24" value="策略库" style="shape=cylinder;whiteSpace=wrap;html=1;boundedLbl=1;backgroundOutline=1;dashed=1;" parent="1" vertex="1">
          <mxGeometry x="90" y="320" width="30" height="47" as="geometry"/>
        </mxCell>
        <mxCell id="vksiCmzUZhZXsTjqpCSR-31" style="edgeStyle=orthogonalEdgeStyle;rounded=0;orthogonalLoop=1;jettySize=auto;html=1;exitX=0.5;exitY=1;exitDx=0;exitDy=0;entryX=0.5;entryY=0;entryDx=0;entryDy=0;" parent="1" source="vksiCmzUZhZXsTjqpCSR-26" target="vksiCmzUZhZXsTjqpCSR-30" edge="1">
          <mxGeometry relative="1" as="geometry"/>
        </mxCell>
        <mxCell id="vksiCmzUZhZXsTjqpCSR-38" value="是" style="text;html=1;align=center;verticalAlign=middle;resizable=0;points=[];;labelBackgroundColor=#ffffff;" parent="vksiCmzUZhZXsTjqpCSR-31" vertex="1" connectable="0">
          <mxGeometry x="-0.1515" y="-2" relative="1" as="geometry">
            <mxPoint as="offset"/>
          </mxGeometry>
        </mxCell>
        <mxCell id="vksiCmzUZhZXsTjqpCSR-36" style="edgeStyle=orthogonalEdgeStyle;rounded=0;orthogonalLoop=1;jettySize=auto;html=1;exitX=1;exitY=0.5;exitDx=0;exitDy=0;" parent="1" source="vksiCmzUZhZXsTjqpCSR-26" edge="1">
          <mxGeometry relative="1" as="geometry">
            <mxPoint x="370" y="170" as="targetPoint"/>
          </mxGeometry>
        </mxCell>
        <mxCell id="vksiCmzUZhZXsTjqpCSR-37" value="错误码&lt;br&gt;（该功能暂未开放）" style="text;html=1;align=center;verticalAlign=middle;resizable=0;points=[];;labelBackgroundColor=#ffffff;" parent="vksiCmzUZhZXsTjqpCSR-36" vertex="1" connectable="0">
          <mxGeometry x="0.7624" y="-2" relative="1" as="geometry">
            <mxPoint x="-2" y="5" as="offset"/>
          </mxGeometry>
        </mxCell>
        <mxCell id="vksiCmzUZhZXsTjqpCSR-39" value="否" style="text;html=1;align=center;verticalAlign=middle;resizable=0;points=[];;labelBackgroundColor=#ffffff;" parent="vksiCmzUZhZXsTjqpCSR-36" vertex="1" connectable="0">
          <mxGeometry x="-0.8113" y="4" relative="1" as="geometry">
            <mxPoint as="offset"/>
          </mxGeometry>
        </mxCell>
        <mxCell id="vksiCmzUZhZXsTjqpCSR-26" value="判断是否开放" style="rhombus;whiteSpace=wrap;html=1;" parent="1" vertex="1">
          <mxGeometry x="215" y="327" width="120" height="40" as="geometry"/>
        </mxCell>
        <mxCell id="vksiCmzUZhZXsTjqpCSR-29" style="edgeStyle=orthogonalEdgeStyle;rounded=0;orthogonalLoop=1;jettySize=auto;html=1;exitX=0.5;exitY=1;exitDx=0;exitDy=0;entryX=0.5;entryY=0;entryDx=0;entryDy=0;" parent="1" source="vksiCmzUZhZXsTjqpCSR-27" target="vksiCmzUZhZXsTjqpCSR-26" edge="1">
          <mxGeometry relative="1" as="geometry"/>
        </mxCell>
        <mxCell id="vksiCmzUZhZXsTjqpCSR-27" value="加载对应API灰度策略" style="rounded=0;whiteSpace=wrap;html=1;" parent="1" vertex="1">
          <mxGeometry x="215" y="277" width="120" height="30" as="geometry"/>
        </mxCell>
        <mxCell id="vksiCmzUZhZXsTjqpCSR-12" value="" style="endArrow=classic;html=1;" parent="1" target="vksiCmzUZhZXsTjqpCSR-27" edge="1">
          <mxGeometry width="50" height="50" relative="1" as="geometry">
            <mxPoint x="275" y="170" as="sourcePoint"/>
            <mxPoint x="390" y="140" as="targetPoint"/>
          </mxGeometry>
        </mxCell>
        <mxCell id="vksiCmzUZhZXsTjqpCSR-13" value="Open API" style="text;html=1;align=center;verticalAlign=middle;resizable=0;points=[];;labelBackgroundColor=#ffffff;" parent="vksiCmzUZhZXsTjqpCSR-12" vertex="1" connectable="0">
          <mxGeometry x="-0.0571" y="-2" relative="1" as="geometry">
            <mxPoint as="offset"/>
          </mxGeometry>
        </mxCell>
        <mxCell id="vksiCmzUZhZXsTjqpCSR-32" style="edgeStyle=orthogonalEdgeStyle;rounded=0;orthogonalLoop=1;jettySize=auto;html=1;exitX=0.5;exitY=1;exitDx=0;exitDy=0;" parent="1" source="vksiCmzUZhZXsTjqpCSR-30" target="vksiCmzUZhZXsTjqpCSR-14" edge="1">
          <mxGeometry relative="1" as="geometry"/>
        </mxCell>
        <mxCell id="vksiCmzUZhZXsTjqpCSR-30" value="具体业务实现" style="rounded=0;whiteSpace=wrap;html=1;" parent="1" vertex="1">
          <mxGeometry x="215" y="400" width="120" height="30" as="geometry"/>
        </mxCell>
        <mxCell id="8F-qpr0rN2GtLIaiDR_Z-4" value="" style="group" vertex="1" connectable="0" parent="1">
          <mxGeometry x="540" y="202" width="570" height="290" as="geometry"/>
        </mxCell>
        <mxCell id="2Okaz1a7KPPU4qznNnXS-11" value="灰度策略表设计" style="text;html=1;strokeColor=none;fillColor=none;align=center;verticalAlign=middle;whiteSpace=wrap;rounded=0;" parent="8F-qpr0rN2GtLIaiDR_Z-4" vertex="1">
          <mxGeometry x="30" width="100" height="20" as="geometry"/>
        </mxCell>
        <mxCell id="2Okaz1a7KPPU4qznNnXS-4" value="灰度粒度" style="rounded=0;whiteSpace=wrap;html=1;" parent="8F-qpr0rN2GtLIaiDR_Z-4" vertex="1">
          <mxGeometry x="30" y="20" width="190" height="23" as="geometry"/>
        </mxCell>
        <mxCell id="2Okaz1a7KPPU4qznNnXS-5" value="灰度策略" style="rounded=0;whiteSpace=wrap;html=1;" parent="8F-qpr0rN2GtLIaiDR_Z-4" vertex="1">
          <mxGeometry x="220" y="20" width="350" height="23" as="geometry"/>
        </mxCell>
        <mxCell id="2Okaz1a7KPPU4qznNnXS-6" value="&lt;div style=&quot;text-align: left&quot;&gt;&lt;span&gt;API:CreateTieringJob&lt;/span&gt;&lt;/div&gt;&lt;div style=&quot;text-align: left&quot;&gt;&lt;span&gt;----------------------------&lt;/span&gt;&lt;/div&gt;&lt;div style=&quot;text-align: left&quot;&gt;&lt;span&gt;Feature:Encrypt&lt;/span&gt;&lt;/div&gt;" style="rounded=0;whiteSpace=wrap;html=1;" parent="8F-qpr0rN2GtLIaiDR_Z-4" vertex="1">
          <mxGeometry x="30" y="43" width="190" height="150" as="geometry"/>
        </mxCell>
        <mxCell id="2Okaz1a7KPPU4qznNnXS-7" value="&lt;div style=&quot;text-align: left&quot;&gt;&lt;span style=&quot;background-color: rgb(255 , 255 , 255) ; color: rgb(74 , 85 , 96) ; white-space: pre-line ; font-size: 8px&quot;&gt;{&lt;/span&gt;&lt;/div&gt;&lt;font style=&quot;font-size: 8px&quot;&gt;&lt;div style=&quot;text-align: left&quot;&gt;&lt;span style=&quot;color: rgb(74 , 85 , 96) ; white-space: pre-line ; background-color: rgb(255 , 255 , 255)&quot;&gt;&amp;nbsp; &amp;nbsp;&amp;nbsp;&lt;/span&gt;&lt;span class=&quot;json_key&quot; style=&quot;box-sizing: border-box ; color: rgb(146 , 39 , 143) ; font-weight: bold ; white-space: pre-line ; background-color: rgb(255 , 255 , 255)&quot;&gt;&quot;Region&quot;&lt;/span&gt;&lt;span style=&quot;color: rgb(74 , 85 , 96) ; white-space: pre-line ; background-color: rgb(255 , 255 , 255)&quot;&gt;:&lt;/span&gt;&lt;span style=&quot;box-sizing: border-box ; color: rgb(74 , 85 , 96) ; white-space: pre-line ; background-color: rgb(255 , 255 , 255)&quot;&gt;&lt;span class=&quot;fa fa-minus-square-o&quot; style=&quot;box-sizing: border-box ; display: inline-block ; font-stretch: normal ; line-height: 1 ; font-family: &amp;#34;fontawesome&amp;#34; ; cursor: pointer&quot;&gt;&lt;/span&gt;[&lt;/span&gt;&lt;span class=&quot;json_string&quot; style=&quot;background-color: rgb(255 , 255 , 255) ; white-space: pre-line ; box-sizing: border-box ; color: rgb(58 , 181 , 74) ; font-weight: bold&quot;&gt;&quot;cn-hangzhou&quot;&lt;/span&gt;&lt;span style=&quot;background-color: rgb(255 , 255 , 255) ; color: rgb(74 , 85 , 96) ; white-space: pre-line ; box-sizing: border-box&quot;&gt;]&lt;/span&gt;&lt;span style=&quot;background-color: rgb(255 , 255 , 255) ; color: rgb(74 , 85 , 96) ; white-space: pre-line&quot;&gt;,&lt;/span&gt;&lt;/div&gt;&lt;span style=&quot;color: rgb(74 , 85 , 96) ; font-family: &amp;#34;menlo&amp;#34; , monospace , &amp;#34;tahoma&amp;#34; , , ; white-space: pre-line ; background-color: rgb(255 , 255 , 255)&quot;&gt;&lt;div style=&quot;text-align: left&quot;&gt;&amp;nbsp; &amp;nbsp;&amp;nbsp;&lt;span class=&quot;json_key&quot; style=&quot;box-sizing: border-box ; color: rgb(146 , 39 , 143) ; font-weight: bold&quot;&gt;&quot;Zone&quot;&lt;/span&gt;:&lt;span style=&quot;box-sizing: border-box&quot;&gt;&lt;span class=&quot;fa fa-minus-square-o&quot; style=&quot;box-sizing: border-box ; display: inline-block ; font-stretch: normal ; line-height: 1 ; font-family: &amp;#34;fontawesome&amp;#34; ; cursor: pointer&quot;&gt;&lt;/span&gt;[&lt;/span&gt;&lt;span style=&quot;color: rgb(58 , 181 , 74) ; font-weight: bold&quot;&gt;&quot;cn-hangzhou-b&quot;&lt;/span&gt;&lt;span style=&quot;box-sizing: border-box&quot;&gt;]&lt;/span&gt;,&lt;/div&gt;&lt;/span&gt;&lt;span style=&quot;color: rgb(74 , 85 , 96) ; font-family: &amp;#34;menlo&amp;#34; , monospace , &amp;#34;tahoma&amp;#34; , , ; white-space: pre-line ; background-color: rgb(255 , 255 , 255)&quot;&gt;&lt;div style=&quot;text-align: left&quot;&gt;&amp;nbsp; &amp;nbsp;&amp;nbsp;&lt;span class=&quot;json_key&quot; style=&quot;box-sizing: border-box ; color: rgb(146 , 39 , 143) ; font-weight: bold&quot;&gt;&quot;Cluster&quot;&lt;/span&gt;:&lt;span style=&quot;box-sizing: border-box&quot;&gt;&lt;span class=&quot;fa fa-minus-square-o&quot; style=&quot;box-sizing: border-box ; display: inline-block ; font-stretch: normal ; line-height: 1 ; font-family: &amp;#34;fontawesome&amp;#34; ; cursor: pointer&quot;&gt;&lt;/span&gt;[&lt;/span&gt;&lt;span style=&quot;color: rgb(58 , 181 , 74) ; font-weight: bold&quot;&gt;&quot;cn-hanghzou-b-1&quot;&lt;/span&gt;&lt;span style=&quot;box-sizing: border-box&quot;&gt;]&lt;/span&gt;,&lt;/div&gt;&lt;/span&gt;&lt;span style=&quot;color: rgb(74 , 85 , 96) ; font-family: &amp;#34;menlo&amp;#34; , monospace , &amp;#34;tahoma&amp;#34; , , ; white-space: pre-line ; background-color: rgb(255 , 255 , 255)&quot;&gt;&lt;div style=&quot;text-align: left&quot;&gt;&amp;nbsp; &amp;nbsp;&amp;nbsp;&lt;span class=&quot;json_key&quot; style=&quot;box-sizing: border-box ; color: rgb(146 , 39 , 143) ; font-weight: bold&quot;&gt;&quot;Protocol&quot;&lt;/span&gt;:&lt;span style=&quot;box-sizing: border-box&quot;&gt;&lt;span class=&quot;fa fa-minus-square-o&quot; style=&quot;box-sizing: border-box ; display: inline-block ; font-stretch: normal ; line-height: 1 ; font-family: &amp;#34;fontawesome&amp;#34; ; cursor: pointer&quot;&gt;&lt;/span&gt;[&lt;span class=&quot;json_string&quot; style=&quot;box-sizing: border-box ; color: rgb(58 , 181 , 74) ; font-weight: bold&quot;&gt;&quot;nfs&quot;&lt;/span&gt;,&lt;span class=&quot;json_string&quot; style=&quot;box-sizing: border-box ; color: rgb(58 , 181 , 74) ; font-weight: bold&quot;&gt;&quot;smb&quot;&lt;/span&gt;]&lt;/span&gt;,&lt;/div&gt;&lt;/span&gt;&lt;span class=&quot;json_key&quot; style=&quot;box-sizing: border-box ; color: rgb(146 , 39 , 143) ; font-weight: bold ; font-family: &amp;#34;menlo&amp;#34; , monospace , &amp;#34;tahoma&amp;#34; , , ; white-space: pre-line ; background-color: rgb(255 , 255 , 255)&quot;&gt;&lt;div style=&quot;text-align: left&quot;&gt;&lt;span class=&quot;json_key&quot; style=&quot;box-sizing: border-box&quot;&gt;&amp;nbsp; &amp;nbsp; &quot;StartTime&quot;&lt;/span&gt;&lt;span style=&quot;font-weight: normal ; color: rgb(74 , 85 , 96)&quot;&gt;:&lt;/span&gt;&lt;span class=&quot;json_string&quot; style=&quot;box-sizing: border-box ; color: rgb(58 , 181 , 74)&quot;&gt;&quot;FileSystem&amp;gt;2020-01-01&amp;nbsp;00:00:00&quot;&lt;/span&gt;&lt;span style=&quot;font-weight: normal ; color: rgb(74 , 85 , 96)&quot;&gt;,&lt;/span&gt;&lt;/div&gt;&lt;/span&gt;&lt;span style=&quot;color: rgb(74 , 85 , 96) ; font-family: &amp;#34;menlo&amp;#34; , monospace , &amp;#34;tahoma&amp;#34; , , ; white-space: pre-line ; background-color: rgb(255 , 255 , 255)&quot;&gt;&lt;div style=&quot;text-align: left&quot;&gt;&amp;nbsp; &amp;nbsp;&amp;nbsp;&lt;span class=&quot;json_key&quot; style=&quot;box-sizing: border-box ; color: rgb(146 , 39 , 143) ; font-weight: bold&quot;&gt;&quot;FileSystem&quot;&lt;/span&gt;:&lt;span style=&quot;box-sizing: border-box&quot;&gt;&lt;span class=&quot;fa fa-minus-square-o&quot; style=&quot;box-sizing: border-box ; display: inline-block ; font-stretch: normal ; line-height: 1 ; font-family: &amp;#34;fontawesome&amp;#34; ; cursor: pointer&quot;&gt;&lt;/span&gt;[&lt;/span&gt;&lt;span class=&quot;json_string&quot; style=&quot;box-sizing: border-box ; color: rgb(58 , 181 , 74) ; font-weight: bold&quot;&gt;&quot;aaa&quot;&lt;/span&gt;,&lt;span style=&quot;color: rgb(58 , 181 , 74) ; font-weight: bold&quot;&gt;&quot;bbb&quot;&lt;/span&gt;&lt;span style=&quot;box-sizing: border-box&quot;&gt;]&lt;/span&gt;,&lt;/div&gt;&lt;/span&gt;&lt;span style=&quot;color: rgb(74 , 85 , 96) ; font-family: &amp;#34;menlo&amp;#34; , monospace , &amp;#34;tahoma&amp;#34; , , ; white-space: pre-line ; background-color: rgb(255 , 255 , 255)&quot;&gt;&lt;div style=&quot;text-align: left&quot;&gt;&amp;nbsp; &amp;nbsp;&amp;nbsp;&lt;span class=&quot;json_key&quot; style=&quot;box-sizing: border-box ; color: rgb(146 , 39 , 143) ; font-weight: bold&quot;&gt;&quot;Uid&quot;&lt;/span&gt;:&lt;span style=&quot;box-sizing: border-box&quot;&gt;&lt;span class=&quot;fa fa-minus-square-o&quot; style=&quot;box-sizing: border-box ; display: inline-block ; font-stretch: normal ; line-height: 1 ; font-family: &amp;#34;fontawesome&amp;#34; ; cursor: pointer&quot;&gt;&lt;/span&gt;[&lt;/span&gt;&lt;span class=&quot;json_string&quot; style=&quot;box-sizing: border-box ; color: rgb(58 , 181 , 74) ; font-weight: bold&quot;&gt;&quot;xxx&quot;&lt;/span&gt;,&lt;span style=&quot;color: rgb(58 , 181 , 74) ; font-weight: bold&quot;&gt;&quot;yyy&quot;&lt;/span&gt;]&lt;/div&gt;&lt;/span&gt;&lt;span style=&quot;color: rgb(74 , 85 , 96) ; font-family: &amp;#34;menlo&amp;#34; , monospace , &amp;#34;tahoma&amp;#34; , , ; white-space: pre-line ; background-color: rgb(255 , 255 , 255)&quot;&gt;&lt;div style=&quot;text-align: left&quot;&gt;}&lt;br&gt;&lt;/div&gt;&lt;/span&gt;&lt;/font&gt;" style="rounded=0;whiteSpace=wrap;html=1;" parent="8F-qpr0rN2GtLIaiDR_Z-4" vertex="1">
          <mxGeometry x="220" y="43" width="350" height="150" as="geometry"/>
        </mxCell>
        <mxCell id="2Okaz1a7KPPU4qznNnXS-8" value="粒度支持：&lt;br&gt;&lt;ul&gt;&lt;li&gt;全服务级别(API:*)&lt;/li&gt;&lt;li&gt;API级别(API:###)&lt;/li&gt;&lt;li&gt;自定义级别(Feature:###，可细化到代码分支)&lt;/li&gt;&lt;/ul&gt;" style="rounded=0;whiteSpace=wrap;html=1;align=left;" parent="8F-qpr0rN2GtLIaiDR_Z-4" vertex="1">
          <mxGeometry x="30" y="193" width="190" height="97" as="geometry"/>
        </mxCell>
        <mxCell id="2Okaz1a7KPPU4qznNnXS-9" value="&lt;div style=&quot;text-align: left&quot;&gt;&lt;span&gt;灰度逻辑：&lt;/span&gt;&lt;/div&gt;&lt;div style=&quot;text-align: left&quot;&gt;&lt;br&gt;&lt;/div&gt;&lt;div style=&quot;text-align: left&quot;&gt;&lt;span&gt;[Region] &amp;amp;&amp;amp; [Zone] &amp;amp;&amp;amp; [Cluster] &amp;amp;&amp;amp; [Protocol] &amp;amp;&amp;amp;&amp;nbsp;&lt;/span&gt;&lt;/div&gt;&lt;div style=&quot;text-align: left&quot;&gt;&lt;span&gt;( [StartTime] || [FileSystem] || [Uid] )&lt;/span&gt;&lt;/div&gt;" style="rounded=0;whiteSpace=wrap;html=1;" parent="8F-qpr0rN2GtLIaiDR_Z-4" vertex="1">
          <mxGeometry x="220" y="193" width="350" height="97" as="geometry"/>
        </mxCell>
      </root>
    </mxGraphModel>
  </diagram>
</mxfile>
